<svg width="38" height="60" viewBox="0 0 38 60" fill="none" xmlns="http://www.w3.org/2000/svg">
<path d="M19 0C8.169 0 0 4.182 0 9.727C0 10.812 0.0840001 36.341 7.423 51.306C8.396 56.282 13.316 60 19 60C24.684 60 29.604 56.282 30.577 51.306C37.916 36.341 38 10.813 38 9.728C38 4.182 29.831 0 19 0ZM36.1 9.728C36.1 9.728 36.099 12.77 35.81 17.356C35.384 16.102 34.513 14.993 33.272 14.048C35.055 12.808 36.1 11.324 36.1 9.728ZM32.372 23.478C32.352 23.448 32.348 23.412 32.321 23.384C32.008 23.045 31.385 23.04 30.925 23.372C30.7236 23.5118 30.578 23.7183 30.514 23.955C30.2497 23.8547 29.9697 23.8022 29.687 23.8H29.686C29.24 23.8 28.783 23.909 28.366 24.113C28.0716 24.2624 27.8072 24.4648 27.586 24.71C27.049 24.293 26.282 24.029 25.386 24.029C25.259 24.029 25.13 24.035 25 24.045C24.255 24.107 23.557 24.337 23.034 24.696C22.6975 24.9201 22.4271 25.2301 22.251 25.594C21.8079 25.3194 21.2952 25.1778 20.774 25.186C20.674 25.186 20.571 25.19 20.468 25.201C19.906 25.256 19.387 25.455 19 25.763C18.8389 25.8938 18.7003 26.0502 18.59 26.226C18.2407 25.9261 17.7944 25.7633 17.334 25.768C16.874 25.768 16.417 25.914 16.049 26.182C15.8939 26.2991 15.7571 26.4387 15.643 26.596C15.613 26.524 15.587 26.449 15.529 26.387C15.217 26.048 14.593 26.043 14.134 26.376C14.056 26.432 14.005 26.5 13.947 26.565C13.9282 26.4563 13.8797 26.3549 13.807 26.272C13.524 25.966 12.963 25.963 12.548 26.262C12.435 26.344 12.35 26.442 12.284 26.546C6.848 25.243 3.304 22.409 3.304 19.248C3.304 17.527 4.275 16.028 6.032 14.839C9.169 16.515 13.81 17.581 18.999 17.581C24.189 17.581 28.83 16.515 31.966 14.839C33.723 16.028 34.694 17.528 34.694 19.248C34.694 20.78 33.854 22.235 32.372 23.478ZM17.615 27.885C17.4582 27.999 17.2698 28.0612 17.076 28.063C16.9883 28.066 16.9009 28.0508 16.8194 28.0185C16.7378 27.9861 16.6638 27.9373 16.602 27.875C16.375 27.629 16.461 27.233 16.793 26.993C16.95 26.8778 17.1393 26.8149 17.334 26.813C17.52 26.813 17.693 26.876 17.808 27.001C18.034 27.247 17.95 27.643 17.615 27.885ZM20.597 27.743C20.026 27.743 19.556 27.476 19.511 27.102C19.456 26.691 19.945 26.304 20.597 26.239C20.656 26.233 20.716 26.231 20.775 26.231C21.35 26.231 21.822 26.497 21.871 26.871C21.92 27.284 21.434 27.67 20.78 27.733C20.717 27.74 20.655 27.743 20.597 27.743ZM25.333 27.303C25.2408 27.3101 25.1484 27.3138 25.056 27.314C24.1 27.314 23.322 26.913 23.263 26.354C23.201 25.742 24.026 25.175 25.107 25.087C25.1998 25.0799 25.2929 25.0762 25.386 25.076C26.343 25.076 27.12 25.478 27.178 26.036C27.242 26.648 26.415 27.215 25.333 27.303ZM28.285 26.208C28.057 25.845 28.351 25.316 28.938 25.028C29.187 24.905 29.45 24.847 29.686 24.847C30.006 24.847 30.28 24.955 30.41 25.164C30.637 25.526 30.345 26.055 29.757 26.343C29.5243 26.4594 29.2682 26.5213 29.008 26.524C28.688 26.524 28.415 26.417 28.285 26.208ZM19 2.53C27.636 2.53 34.634 5.769 34.634 9.259C34.634 10.656 33.496 11.944 31.596 12.991C28.61 11.431 24.283 10.546 19 10.546C13.717 10.546 9.39 11.431 6.405 12.991C4.505 11.944 3.367 10.657 3.367 9.259C3.367 5.769 10.367 2.53 19 2.53ZM19 11.952C23.537 11.952 27.267 12.616 29.959 13.763C27.138 14.885 23.271 15.58 19 15.58C14.729 15.58 10.862 14.886 8.041 13.763C10.734 12.616 14.464 11.952 19 11.952ZM1.9 9.727C1.9 11.324 2.945 12.808 4.728 14.048C3.487 14.992 2.616 16.102 2.19 17.356C1.901 12.769 1.9 9.728 1.9 9.727ZM28.753 50.718C26.679 53.087 23.09 54.657 19 54.657C14.911 54.657 11.321 53.087 9.247 50.718C5.159 42.534 3.348 30.771 2.543 21.941C4.26 25.376 9.228 27.902 15.7 28.547C16.032 28.904 16.534 29.11 17.076 29.11C17.5362 29.1101 17.9848 28.9653 18.358 28.696C18.574 28.7 18.783 28.713 19 28.713C19.298 28.713 19.59 28.702 19.884 28.695C20.108 28.75 20.343 28.79 20.597 28.79C20.9484 28.7903 21.297 28.7287 21.627 28.608C22.541 28.536 23.427 28.427 24.278 28.284C24.6615 28.3565 25.0531 28.3767 25.442 28.344C26.185 28.283 26.883 28.052 27.409 27.693C27.498 27.631 27.562 27.556 27.639 27.487C27.78 27.444 27.92 27.399 28.058 27.353C28.342 27.481 28.656 27.57 29.008 27.57C29.455 27.57 29.911 27.461 30.329 27.257C31.051 26.902 31.502 26.333 31.62 25.744C33.405 24.681 34.728 23.379 35.46 21.909C34.657 30.743 32.847 42.524 28.753 50.718Z" fill="#2FD080"/>
</svg>
