<svg width="54" height="54" viewBox="0 0 54 54" fill="none" xmlns="http://www.w3.org/2000/svg">
<path d="M12.2368 49.95C18.1666 49.95 22.9737 45.3834 22.9737 39.75C22.9737 34.1167 18.1666 29.55 12.2368 29.55C6.30705 29.55 1.5 34.1167 1.5 39.75C1.5 45.3834 6.30705 49.95 12.2368 49.95Z" stroke="#2FD080" stroke-width="2" stroke-linecap="round" stroke-linejoin="round"/>
<path d="M40.4211 52.4999C45.6097 52.4999 49.8158 48.504 49.8158 43.5749C49.8158 38.6458 45.6097 34.6499 40.4211 34.6499C35.2325 34.6499 31.0264 38.6458 31.0264 43.5749C31.0264 48.504 35.2325 52.4999 40.4211 52.4999Z" stroke="#2FD080" stroke-width="2" stroke-linecap="round" stroke-linejoin="round"/>
<path d="M43.1052 9.15C39.5473 10.1853 31.8691 12.9929 27.3758 17.1315C20.6317 23.3408 18.9473 27.6375 17.6052 30.825M43.1052 9.15C41.6061 10.8305 38.6964 15.0099 37.7959 19.8473C36.4417 27.0995 37.7368 31.4625 39.0789 34.65M33.7105 1.5L52.5 16.8" stroke="#2FD080" stroke-width="2" stroke-linecap="round"/>
</svg>
