<svg width="60" height="60" viewBox="0 0 60 60" fill="none" xmlns="http://www.w3.org/2000/svg">
<path d="M56.1007 0.000251884C48.268 4.51724 37.9023 5.81828 28.2252 7.03288C8.03145 9.56747 -9.16382 11.7257 5.91414 41.9452C7.39642 40.3691 9.01581 38.8836 10.7266 37.4786C5.67446 30.4206 3.9629 22.4656 8.53213 16.7566C7.50915 22.0204 9.88492 28.5838 14.5108 34.592C15.2734 34.0483 16.045 33.5168 16.8251 32.998C18.1737 32.1013 19.5461 31.2397 20.9248 30.4077C15.9572 24.2793 14.3678 17.0259 19.9587 11.9754C18.1916 17.685 20.3544 23.4781 24.6488 28.2368C26.8958 26.9653 29.1208 25.7653 31.2475 24.6303C26.8956 19.842 25.1674 13.7979 30.0762 9.46791C27.9188 14.3332 30.1966 19.3067 34.2339 23.0361C35.3269 22.4511 36.3852 21.8794 37.3886 21.3246C38.8248 20.4419 40.2262 19.5235 41.5755 18.553C38.0661 15.1476 36.6697 10.0622 41.8933 7.37635C39.4201 10.7282 40.978 14.5066 43.8702 16.8062C47.9161 13.5423 51.3563 9.67752 53.6845 4.72923C52.6978 10.4346 50.0807 14.7565 46.5807 18.3597C50.223 19.7506 54.5116 18.8678 56.2278 13.4311C54.9946 22.7493 48.9458 23.2637 44.241 20.5651C42.1675 22.3608 39.8815 23.9875 37.5016 25.5495C43.5779 29.4339 51.4621 30.7266 55.5443 26.573C51.8139 35.1701 41.4561 33.0363 34.3274 27.4724C32.3831 28.795 30.3409 30.1846 28.3044 31.6459C35.3006 37.1773 45.2612 40.3768 53.9696 38.6128C45.5974 45.4266 32.9801 41.4818 24.7223 34.3139C23.7854 35.0416 22.8638 35.7844 21.97 36.5439C20.876 37.4738 19.8263 38.4285 18.8364 39.4047C26.3303 46.6108 37.072 52.0247 48.5688 51.6064C37.6726 56.6974 24.3991 51.3992 15.5738 43.0158C14.3957 44.5064 13.3949 46.04 12.6367 47.6134C12.4491 48.0028 12.2744 48.3982 12.1129 48.799C71.3226 85.1173 60.9258 12.9776 56.1007 0V0.000251884ZM27.2574 29.4984C24.2085 31.1849 21.1142 32.979 18.1461 34.9525C9.05796 40.9946 1.37564 48.4659 0 58.4179C0.667763 58.8427 1.85196 59.3575 3.41244 59.6662C5.07042 59.9942 7.15496 60.1087 9.4953 59.8815C7.96681 55.1235 8.55777 50.6222 10.4957 46.5993C12.6295 42.1707 16.2961 38.2678 20.426 34.7577C22.6195 32.8935 24.9458 31.1477 27.2573 29.4985L27.2574 29.4984Z" fill="#2FD080"/>
<path d="M56.1007 0.000251884C48.268 4.51724 37.9023 5.81828 28.2252 7.03288C8.03145 9.56747 -9.16382 11.7257 5.91414 41.9452C7.39642 40.3691 9.01581 38.8836 10.7266 37.4786C5.67446 30.4206 3.9629 22.4656 8.53213 16.7566C7.50915 22.0204 9.88492 28.5838 14.5108 34.592C15.2734 34.0483 16.045 33.5168 16.8251 32.998C18.1737 32.1013 19.5461 31.2397 20.9248 30.4077C15.9572 24.2793 14.3678 17.0259 19.9587 11.9754C18.1916 17.685 20.3544 23.4781 24.6488 28.2368C26.8958 26.9653 29.1208 25.7653 31.2475 24.6303C26.8956 19.842 25.1674 13.7979 30.0762 9.46791C27.9188 14.3332 30.1966 19.3067 34.2339 23.0361C35.3269 22.4511 36.3852 21.8794 37.3886 21.3246C38.8248 20.4419 40.2262 19.5235 41.5755 18.553C38.0661 15.1476 36.6697 10.0622 41.8933 7.37635C39.4201 10.7282 40.978 14.5066 43.8702 16.8062C47.9161 13.5423 51.3563 9.67752 53.6845 4.72923C52.6978 10.4346 50.0807 14.7565 46.5807 18.3597C50.223 19.7506 54.5116 18.8678 56.2278 13.4311C54.9946 22.7493 48.9458 23.2637 44.241 20.5651C42.1675 22.3608 39.8815 23.9875 37.5016 25.5495C43.5779 29.4339 51.4621 30.7266 55.5443 26.573C51.8139 35.1701 41.4561 33.0363 34.3274 27.4724C32.3831 28.795 30.3409 30.1846 28.3044 31.6459C35.3006 37.1773 45.2612 40.3768 53.9696 38.6128C45.5974 45.4266 32.9801 41.4818 24.7223 34.3139C23.7854 35.0416 22.8638 35.7844 21.97 36.5439C20.876 37.4738 19.8263 38.4285 18.8364 39.4047C26.3303 46.6108 37.072 52.0247 48.5688 51.6064C37.6726 56.6974 24.3991 51.3992 15.5738 43.0158C14.3957 44.5064 13.3949 46.04 12.6367 47.6134C12.4491 48.0028 12.2744 48.3982 12.1129 48.799C71.3226 85.1173 60.9258 12.9776 56.1007 0V0.000251884ZM27.2574 29.4984C24.2085 31.1849 21.1142 32.979 18.1461 34.9525C9.05796 40.9946 1.37564 48.4659 0 58.4179C0.667763 58.8427 1.85196 59.3575 3.41244 59.6662C5.07042 59.9942 7.15496 60.1087 9.4953 59.8815C7.96681 55.1235 8.55777 50.6222 10.4957 46.5993C12.6295 42.1707 16.2961 38.2678 20.426 34.7577C22.6195 32.8935 24.9458 31.1477 27.2573 29.4985L27.2574 29.4984Z" stroke="black"/>
</svg>
