<svg width="60" height="60" viewBox="0 0 60 60" fill="none" xmlns="http://www.w3.org/2000/svg">
<path d="M15 52.6198V56.8461C15 57.6825 15.3161 58.4848 15.8787 59.0762C16.4413 59.6677 17.2044 60 18 60H42C42.7957 60 43.5587 59.6677 44.1213 59.0762C44.6839 58.4848 45 57.6825 45 56.8461V52.6198C49.5605 49.8517 53.3475 45.8703 55.9806 41.0759C58.6136 36.2815 59.9999 30.8428 60 25.3066C60 24.4702 59.6839 23.6679 59.1213 23.0765C58.5587 22.485 57.7957 22.1527 57 22.1527C56.9451 20.2216 56.4197 18.3377 55.4743 16.6811C54.5288 15.0245 53.1949 13.6506 51.6 12.6909C51.2176 9.9436 49.9061 7.43329 47.9059 5.62015C45.9058 3.807 43.351 2.81253 40.71 2.81903C39.6972 2.8172 38.6886 2.95505 37.71 3.22905C35.6451 1.15645 32.8999 0 30.045 0C27.1901 0 24.4449 1.15645 22.38 3.22905C21.4014 2.95505 20.3928 2.8172 19.38 2.81903C16.7287 2.79728 14.1594 3.78486 12.1467 5.59938C10.1341 7.4139 8.81386 9.9328 8.43 12.6909C6.82955 13.6466 5.4896 15.0188 4.53874 16.6757C3.58788 18.3326 3.05802 20.2186 3 22.1527C2.20435 22.1527 1.44129 22.485 0.87868 23.0765C0.31607 23.6679 0 24.4702 0 25.3066C0.000133777 30.8428 1.38638 36.2815 4.01943 41.0759C6.65247 45.8703 10.4395 49.8517 15 52.6198ZM12.33 17.9264L14.82 17.1064L14.34 14.2678C14.3478 13.5886 14.4829 12.9176 14.7374 12.2932C14.9919 11.6688 15.3609 11.1032 15.8234 10.6287C16.2858 10.1543 16.8326 9.78021 17.4326 9.52795C18.0325 9.27568 18.6739 9.15012 19.32 9.15846C20.1864 9.15324 21.041 9.36973 21.81 9.78925L24.24 11.2085L25.74 8.77999C26.2091 8.04492 26.8431 7.44254 27.586 7.02602C28.329 6.60949 29.158 6.39161 30 6.39161C30.842 6.39161 31.671 6.60949 32.414 7.02602C33.1569 7.44254 33.7909 8.04492 34.26 8.77999L35.76 11.2085L38.19 9.78925C38.959 9.36973 39.8136 9.15324 40.68 9.15846C41.9776 9.1413 43.2297 9.66053 44.1667 10.6044C45.1038 11.5482 45.6508 12.8411 45.69 14.2048L45.21 16.8856L47.67 17.7687C48.5775 18.0673 49.3794 18.6442 49.9727 19.4253C50.5661 20.2065 50.9238 21.1563 51 22.1527H9C9.07621 21.1563 9.43395 20.2065 10.0273 19.4253C10.6206 18.6442 11.4225 18.0673 12.33 17.7687V17.9264ZM53.82 28.4606C53.3195 32.5898 51.855 36.5247 49.5571 39.9145C47.2592 43.3044 44.1993 46.0439 40.65 47.8889C40.1507 48.1534 39.7316 48.5593 39.4401 49.0608C39.1485 49.5624 38.9961 50.1396 39 50.7274V53.6921H21V50.7274C21.0039 50.1396 20.8515 49.5624 20.5599 49.0608C20.2684 48.5593 19.8493 48.1534 19.35 47.8889C15.8007 46.0439 12.7408 43.3044 10.4429 39.9145C8.14498 36.5247 6.68051 32.5898 6.18 28.4606H53.82Z" fill="#2FD080"/>
<path d="M15 52.6198V56.8461C15 57.6825 15.3161 58.4848 15.8787 59.0762C16.4413 59.6677 17.2044 60 18 60H42C42.7957 60 43.5587 59.6677 44.1213 59.0762C44.6839 58.4848 45 57.6825 45 56.8461V52.6198C49.5605 49.8517 53.3475 45.8703 55.9806 41.0759C58.6136 36.2815 59.9999 30.8428 60 25.3066C60 24.4702 59.6839 23.6679 59.1213 23.0765C58.5587 22.485 57.7957 22.1527 57 22.1527C56.9451 20.2216 56.4197 18.3377 55.4743 16.6811C54.5288 15.0245 53.1949 13.6506 51.6 12.6909C51.2176 9.9436 49.9061 7.43329 47.9059 5.62015C45.9058 3.807 43.351 2.81253 40.71 2.81903C39.6972 2.8172 38.6886 2.95505 37.71 3.22905C35.6451 1.15645 32.8999 0 30.045 0C27.1901 0 24.4449 1.15645 22.38 3.22905C21.4014 2.95505 20.3928 2.8172 19.38 2.81903C16.7287 2.79728 14.1594 3.78486 12.1467 5.59938C10.1341 7.4139 8.81386 9.9328 8.43 12.6909C6.82955 13.6466 5.4896 15.0188 4.53874 16.6757C3.58788 18.3326 3.05802 20.2186 3 22.1527C2.20435 22.1527 1.44129 22.485 0.87868 23.0765C0.31607 23.6679 0 24.4702 0 25.3066C0.000133777 30.8428 1.38638 36.2815 4.01943 41.0759C6.65247 45.8703 10.4395 49.8517 15 52.6198ZM12.33 17.9264L14.82 17.1064L14.34 14.2678C14.3478 13.5886 14.4829 12.9176 14.7374 12.2932C14.9919 11.6688 15.3609 11.1032 15.8234 10.6287C16.2858 10.1543 16.8326 9.78021 17.4326 9.52795C18.0325 9.27568 18.6739 9.15012 19.32 9.15846C20.1864 9.15324 21.041 9.36973 21.81 9.78925L24.24 11.2085L25.74 8.77999C26.2091 8.04492 26.8431 7.44254 27.586 7.02602C28.329 6.60949 29.158 6.39161 30 6.39161C30.842 6.39161 31.671 6.60949 32.414 7.02602C33.1569 7.44254 33.7909 8.04492 34.26 8.77999L35.76 11.2085L38.19 9.78925C38.959 9.36973 39.8136 9.15324 40.68 9.15846C41.9776 9.1413 43.2297 9.66053 44.1667 10.6044C45.1038 11.5482 45.6508 12.8411 45.69 14.2048L45.21 16.8856L47.67 17.7687C48.5775 18.0673 49.3794 18.6442 49.9727 19.4253C50.5661 20.2065 50.9238 21.1563 51 22.1527H9C9.07621 21.1563 9.43395 20.2065 10.0273 19.4253C10.6206 18.6442 11.4225 18.0673 12.33 17.7687V17.9264ZM53.82 28.4606C53.3195 32.5898 51.855 36.5247 49.5571 39.9145C47.2592 43.3044 44.1993 46.0439 40.65 47.8889C40.1507 48.1534 39.7316 48.5593 39.4401 49.0608C39.1485 49.5624 38.9961 50.1396 39 50.7274V53.6921H21V50.7274C21.0039 50.1396 20.8515 49.5624 20.5599 49.0608C20.2684 48.5593 19.8493 48.1534 19.35 47.8889C15.8007 46.0439 12.7408 43.3044 10.4429 39.9145C8.14498 36.5247 6.68051 32.5898 6.18 28.4606H53.82Z" stroke="black"/>
</svg>
