<svg width="60" height="60" viewBox="0 0 60 60" fill="none" xmlns="http://www.w3.org/2000/svg">
<path d="M42.9072 9.22923C39.2379 9.22923 35.6441 10.1712 32.8521 11.7442C33.6776 9.05323 35.9503 5.26423 42.1107 5.26423V2.71023C35.2531 2.71023 31.9459 6.18923 30.5493 9.74522C30.87 7.22622 31.0707 4.22023 30.4469 2.90123C29.2821 0.435225 26.2107 -0.673775 23.5872 0.423225C20.9679 1.52023 19.7876 4.40823 20.9545 6.87523C21.4841 7.99522 23.3783 9.51822 25.2879 10.8482C22.6956 9.78227 19.9078 9.23166 17.0907 9.22923C8.70517 9.22923 0 14.0992 0 27.3182C0 40.7482 16.3252 60.0002 23.4486 60.0002C26.6814 60.0002 27.8452 58.0472 29.7207 58.0472C31.6283 58.0472 32.2428 59.9972 36.3797 59.9972C43.5083 59.9972 60 40.8102 60 27.3182C60 14.1002 51.2938 9.22923 42.9072 9.22923ZM36.3786 56.9972C34.7617 56.9972 34.1141 56.6282 33.2938 56.1612C32.4693 55.6912 31.3376 55.0472 29.7207 55.0472C28.1038 55.0472 26.911 55.6902 25.951 56.2062C25.0966 56.6682 24.4769 57.0002 23.4486 57.0002C21.7655 57.0002 16.8186 53.7932 11.5479 46.9102C6.25965 40.0062 3.10345 32.6822 3.10345 27.3182C3.10345 22.0892 4.58379 18.1212 7.50207 15.5232C9.88862 13.3992 13.2952 12.2292 17.0917 12.2292C21.3145 12.2292 25.5093 13.6832 27.7779 15.9332L30 18.1362L32.2221 15.9332C34.4907 13.6832 38.6845 12.2292 42.9062 12.2292C46.1886 12.2292 56.8965 13.3182 56.8965 27.3182C56.8965 32.6952 53.7124 40.0232 48.3776 46.9202C43.0603 53.7952 38.0752 56.9972 36.3786 56.9972Z" fill="#2FD080"/>
</svg>
