<svg width="60" height="60" viewBox="0 0 60 60" fill="none" xmlns="http://www.w3.org/2000/svg">
<path d="M59.3001 25.991C58.8371 23.002 57.0031 13.044 52.8411 10.416C52.7731 10.374 52.7141 10.335 52.6641 10.302C52.7487 9.41809 52.7114 8.52674 52.5531 7.653C51.9541 4.161 47.4291 0 29.2721 0C11.0751 0 6.54212 4.161 5.94412 7.651C5.78542 8.52187 5.74272 9.40992 5.81712 10.292C5.75312 10.342 5.67112 10.403 5.56612 10.478C3.47912 11.966 0.524122 18.359 0.296122 21.878C0.196122 23.424 0.565122 24.597 1.39112 25.364C1.49412 25.46 1.60712 25.534 1.71712 25.617C0.861122 27.897 0.00012207 30.961 0.00012207 34.075C0.00012207 38.197 0.866122 41.549 4.24512 45.155C7.62212 48.761 7.27312 48.515 7.62212 50.269C7.97412 52.023 10.7451 60 29.2471 60H29.2491C47.7511 60 50.8381 52.052 50.8721 50.27C50.8991 48.916 51.3071 48.15 52.2801 47.066C52.9911 47.616 53.7411 47.935 54.5771 47.935C55.2551 47.935 56.2491 47.712 57.1431 46.653C60.4791 42.695 60.4441 33.384 59.3001 25.991ZM29.2421 54.044C15.3461 54.044 7.56112 48.423 7.56112 47.911C7.56112 47.4 15.3461 52.19 29.2421 52.19C43.1341 52.19 50.9191 47.4 50.9191 47.911C50.9191 48.423 43.1341 54.044 29.2421 54.044ZM55.6631 45.404C55.3161 45.816 54.9541 45.999 54.5771 45.999C51.4981 45.999 47.4721 33.742 43.1411 33.742C36.8801 33.742 38.4131 20.808 31.2581 20.808C29.3321 20.808 21.0361 27.211 18.4801 27.211C15.9231 27.211 15.5401 20.808 12.4741 20.808C8.75712 20.808 5.96412 24.418 3.86512 24.418C3.45312 24.418 3.06712 24.279 2.70612 23.945C0.815122 22.19 4.85412 13.361 6.68912 12.054C8.52412 10.743 7.35612 10.872 7.85112 7.979C8.34712 5.084 13.5051 1.936 29.2721 1.936C45.0341 1.936 50.1701 5.207 50.6461 7.979C51.1411 10.873 49.9011 10.85 51.8081 12.054C57.0931 15.39 60.6711 39.466 55.6631 45.404Z" fill="#2FD080"/>
</svg>
