<svg width="62" height="62" viewBox="0 0 62 62" fill="none" xmlns="http://www.w3.org/2000/svg">
<path d="M1 61.0001C1 61.0001 31.0152 50.3402 39.7127 41.6295C40.9846 40.3576 41.994 38.8473 42.6831 37.1847C43.3723 35.5222 43.7277 33.7399 43.7291 31.9398C43.7305 30.1396 43.3779 28.3569 42.6913 26.6932C42.0048 25.0296 40.9978 23.5176 39.7279 22.2437C38.4579 20.9698 36.9499 19.959 35.2898 19.2688C33.6298 18.5786 31.8503 18.2226 30.0528 18.2212C28.2554 18.2198 26.4754 18.5729 24.8142 19.2605C23.1531 19.9481 21.6435 20.9566 20.3715 22.2285C11.6437 30.9696 1 61.0001 1 61.0001ZM20.3715 37.5483L14.1374 31.3351L20.3715 37.5483ZM40.7466 40.594L33.2656 33.1016L40.7466 40.594Z" fill="#F4EAEA"/>
<path d="M20.3715 37.5483L14.1374 31.3351M40.7466 40.594L33.2656 33.1016M1 61.0001C1 61.0001 31.0152 50.3402 39.7127 41.6295C40.9846 40.3576 41.994 38.8473 42.6831 37.1847C43.3723 35.5222 43.7277 33.7399 43.7291 31.9398C43.7305 30.1396 43.3779 28.3569 42.6913 26.6932C42.0048 25.0296 40.9978 23.5176 39.7279 22.2437C38.4579 20.9698 36.9499 19.959 35.2898 19.2688C33.6298 18.5786 31.8503 18.2226 30.0528 18.2212C28.2554 18.2198 26.4754 18.5729 24.8142 19.2605C23.1531 19.9481 21.6435 20.9566 20.3715 22.2285C11.6437 30.9696 1 61.0001 1 61.0001Z" stroke="#2FD080" stroke-width="2" stroke-linecap="round" stroke-linejoin="round"/>
<path d="M61 22.3199C61 22.3199 56.9554 16.2285 50.3563 16.2285C45.369 16.2285 39.7126 22.3199 39.7126 22.3199C39.7126 22.3199 43.7573 28.4113 50.3563 28.4113C56.9554 28.4113 61 22.3199 61 22.3199Z" fill="#F4EAEA" stroke="#2FD080" stroke-width="2" stroke-linecap="round" stroke-linejoin="round"/>
<path d="M39.7127 1C39.7127 1 33.6306 5.05076 33.6306 11.6599C33.6306 18.269 39.7127 22.3198 39.7127 22.3198C39.7127 22.3198 45.7948 16.7157 45.7948 11.6599C45.7948 5.05076 39.7127 1 39.7127 1Z" fill="#F4EAEA" stroke="#2FD080" stroke-width="2" stroke-linecap="round" stroke-linejoin="round"/>
</svg>
