<svg width="1776" height="428" viewBox="0 0 1776 428" fill="none" xmlns="http://www.w3.org/2000/svg">
<path d="M398.408 67.4999C420.676 54.4999 468.577 38.9999 482.036 80.9999C498.861 133.5 486.49 189.5 468.676 211.5C464.222 219.667 450.367 235.3 430.573 232.5C410.779 229.7 400.883 222 398.408 218.5C390.986 224.833 372.875 236.5 359.811 232.5C343.481 227.5 309.832 193.5 310.822 156.5C311.811 119.5 334.079 75.5 340.512 72.5C346.945 69.5 366.244 48.4999 398.408 67.4999ZM398.408 67.4999C410.68 45.8999 397.584 15.5 389.501 3" stroke="#EBF6F9" stroke-width="8"/>
<path d="M357.066 103C347.994 113.667 333.314 145.1 347.169 185.5" stroke="#EBF6F9" stroke-width="15" stroke-linecap="round"/>
<path d="M501.608 257.5C523.876 244.5 571.776 229 585.236 271C602.061 323.5 589.69 379.5 571.875 401.5C567.422 409.667 553.566 425.3 533.773 422.5C513.979 419.7 504.082 412 501.608 408.5C494.185 414.833 476.074 426.5 463.011 422.5C446.681 417.5 413.032 383.5 414.021 346.5C415.011 309.5 437.279 265.5 443.712 262.5C450.145 259.5 469.443 238.5 501.608 257.5ZM501.608 257.5C513.88 235.9 500.783 205.5 492.701 193" stroke="#EBF6F9" stroke-width="8"/>
<path d="M460.266 293C451.194 303.667 436.513 335.1 450.369 375.5" stroke="#EBF6F9" stroke-width="15" stroke-linecap="round"/>
<path d="M153.598 260.383C165.144 272.549 189.622 300.683 191.205 301.883C193.185 303.383 213.968 308.383 203.576 283.383C195.263 263.383 187.577 248.049 185.267 244.383" stroke="#EBF6F9" stroke-width="8"/>
<path d="M207.04 230.883C213.143 256.216 227.923 310.783 238.215 316.383C248.508 321.983 247.122 309.049 245.143 301.883L226.339 226.883" stroke="#EBF6F9" stroke-width="8"/>
<path d="M274.339 367.382L245.143 315.882" stroke="#EBF6F9" stroke-width="8"/>
<path d="M284.73 358.883C272.359 342.716 250.487 299.183 254.05 264.383" stroke="#EBF6F9" stroke-width="8"/>
<path d="M259.988 376.882L206.051 293.382" stroke="#EBF6F9" stroke-width="8"/>
<path d="M245.143 386.883C230.958 361.716 200.805 308.883 199.618 304.883" stroke="#EBF6F9" stroke-width="8"/>
<path d="M249.102 231.882C249.102 270.457 273.443 317.487 290.116 343.322C293.615 348.744 292.575 356.019 287.481 359.981L254.911 385.318C247.912 390.764 237.423 387.798 232.855 380.197C208.829 340.226 151.075 296.284 121.928 277.382C109.392 274.382 84.3199 269.182 84.3199 272.382C84.3199 276.382 61.0624 289.382 42.7534 277.382C28.1061 267.782 31.7019 243.049 35.3308 231.882C28.7329 233.216 14.0526 232.282 8.11457 217.882C0.691965 199.882 15.0423 186.903 17.5165 189.382C-16.6275 156.882 24.4443 131.382 26.4236 132.882C14.5475 101.282 38.2998 86.7157 51.6605 83.3823C52.1553 52.8823 81.8457 49.8823 83.3302 52.8823C92.0394 24.4823 117.969 27.3824 129.845 32.3825C140.93 23.1826 159.866 24.8824 167.948 26.8824C193.284 -4.31765 220.731 17.5491 231.287 32.3825C291.163 13.3825 274.833 70.8825 277.308 74.8825C279.287 78.0825 283.74 88.8825 285.72 93.8825C299.08 97.3825 298.091 97.3825 305.019 110.882C310.561 121.682 297.431 136.382 290.173 142.382C296.111 144.882 302.05 160.382 298.091 171.382C294.924 180.182 281.266 183.382 274.833 183.882C277.472 190.382 281.167 205.382 274.833 213.382C268.499 221.382 255.04 229.049 249.102 231.882Z" stroke="#EBF6F9" stroke-width="8"/>
<path d="M84.8148 228.882C79.8664 217.882 75.4128 198.982 97.1858 211.382C99.66 200.383 109.656 182.883 129.845 200.883" stroke="#EBF6F9" stroke-width="8"/>
<path d="M93.722 167.882C88.4437 153.716 85.9035 126.682 117.969 131.882C118.794 122.382 125.491 106.582 145.68 119.382" stroke="#EBF6F9" stroke-width="8"/>
<path d="M152.113 163.883C152.608 163.383 157.556 125.883 178.834 144.883C183.453 135.049 195.065 121.183 204.566 144.383" stroke="#EBF6F9" stroke-width="8"/>
<path d="M114.01 275.882C119.289 273.215 129.449 265.182 127.866 254.382C127.866 252.882 162.01 270.382 178.834 255.882C192.294 244.282 188.401 220.382 184.772 209.882C190.711 221.216 207.436 240.482 226.834 226.882C246.232 213.282 248.772 204.549 247.617 201.882C248.937 191.549 246.627 169.182 226.834 162.382C229.308 162.382 253.06 145.382 254.05 131.882C255.04 118.382 250.586 104.382 224.854 102.382C226.834 102.564 254.545 101.882 249.102 75.3822C251.081 70.8822 237.72 44.3822 232.277 43.3822C226.834 42.3822 199.123 32.8822 187.741 56.3822C184.937 46.2155 173.49 27.3823 150.134 33.3823C126.777 39.3823 120.938 51.2155 120.938 56.3822C120.443 61.7156 120.443 74.3823 124.402 82.3823C119.618 74.7157 107.28 60.6823 96.1961 65.8823C82.3405 72.3823 72.4437 76.3823 74.9179 98.3823C74.7697 96.9249 60.5676 73.8823 39.7843 88.3823" stroke="#EBF6F9" stroke-width="8"/>
<path d="M987.617 67.4999C1009.88 54.4999 1057.79 38.9999 1071.24 80.9999C1088.07 133.5 1075.7 189.5 1057.88 211.5C1053.43 219.667 1039.58 235.3 1019.78 232.5C999.988 229.7 990.091 222 987.617 218.5C980.194 224.833 962.083 236.5 949.019 232.5C932.69 227.5 899.04 193.5 900.03 156.5C901.02 119.5 923.288 75.5 929.721 72.5C936.153 69.5 955.452 48.4999 987.617 67.4999ZM987.617 67.4999C999.889 45.8999 986.792 15.5 978.71 3" stroke="#EBF6F9" stroke-width="8"/>
<path d="M946.274 103C937.202 113.667 922.522 145.1 936.378 185.5" stroke="#EBF6F9" stroke-width="15" stroke-linecap="round"/>
<path d="M1090.82 257.5C1113.08 244.5 1160.98 229 1174.44 271C1191.27 323.5 1178.9 379.5 1161.08 401.5C1156.63 409.667 1142.77 425.3 1122.98 422.5C1103.19 419.7 1093.29 412 1090.82 408.5C1083.39 414.833 1065.28 426.5 1052.22 422.5C1035.89 417.5 1002.24 383.5 1003.23 346.5C1004.22 309.5 1026.49 265.5 1032.92 262.5C1039.35 259.5 1058.65 238.5 1090.82 257.5ZM1090.82 257.5C1103.09 235.9 1089.99 205.5 1081.91 193" stroke="#EBF6F9" stroke-width="8"/>
<path d="M1049.47 293C1040.4 303.667 1025.72 335.1 1039.58 375.5" stroke="#EBF6F9" stroke-width="15" stroke-linecap="round"/>
<path d="M742.806 260.383C754.352 272.549 778.83 300.683 780.414 301.883C782.393 303.383 803.176 308.383 792.785 283.383C784.471 263.383 776.785 248.049 774.476 244.383" stroke="#EBF6F9" stroke-width="8"/>
<path d="M796.249 230.883C802.352 256.216 817.131 310.783 827.424 316.383C837.716 321.983 836.331 309.049 834.351 301.883L815.547 226.883" stroke="#EBF6F9" stroke-width="8"/>
<path d="M863.547 367.382L834.351 315.882" stroke="#EBF6F9" stroke-width="8"/>
<path d="M873.939 358.883C861.568 342.716 839.696 299.183 843.258 264.383" stroke="#EBF6F9" stroke-width="8"/>
<path d="M849.197 376.882L795.259 293.382" stroke="#EBF6F9" stroke-width="8"/>
<path d="M834.351 386.883C820.166 361.716 790.014 308.883 788.826 304.883" stroke="#EBF6F9" stroke-width="8"/>
<path d="M838.31 231.882C838.31 270.457 862.652 317.487 879.324 343.322C882.824 348.744 881.783 356.019 876.69 359.981L844.12 385.318C837.12 390.764 826.632 387.798 822.063 380.197C798.038 340.226 740.283 296.284 711.136 277.382C698.6 274.382 673.528 269.182 673.528 272.382C673.528 276.382 650.271 289.382 631.962 277.382C617.315 267.782 620.91 243.049 624.539 231.882C617.941 233.216 603.261 232.282 597.323 217.882C589.9 199.882 604.251 186.903 606.725 189.382C572.581 156.882 613.653 131.382 615.632 132.882C603.756 101.282 627.508 86.7157 640.869 83.3823C641.364 52.8823 671.054 49.8823 672.539 52.8823C681.248 24.4823 707.177 27.3824 719.054 32.3825C730.138 23.1826 749.074 24.8824 757.156 26.8824C782.492 -4.31765 809.939 17.5491 820.496 32.3825C880.371 13.3825 864.042 70.8825 866.516 74.8825C868.495 78.0825 872.949 88.8825 874.928 93.8825C888.289 97.3825 887.299 97.3825 894.227 110.882C899.769 121.682 886.639 136.382 879.382 142.382C885.32 144.882 891.258 160.382 887.299 171.382C884.132 180.182 870.475 183.382 864.042 183.882C866.681 190.382 870.376 205.382 864.042 213.382C857.708 221.382 844.248 229.049 838.31 231.882Z" stroke="#EBF6F9" stroke-width="8"/>
<path d="M674.023 228.882C669.075 217.882 664.621 198.982 686.394 211.382C688.868 200.383 698.864 182.883 719.054 200.883" stroke="#EBF6F9" stroke-width="8"/>
<path d="M682.93 167.882C677.652 153.716 675.112 126.682 707.178 131.882C708.002 122.382 714.699 106.582 734.889 119.382" stroke="#EBF6F9" stroke-width="8"/>
<path d="M741.321 163.883C741.816 163.383 746.765 125.883 768.043 144.883C772.661 135.049 784.274 121.183 793.775 144.383" stroke="#EBF6F9" stroke-width="8"/>
<path d="M703.219 275.882C708.497 273.215 718.658 265.182 717.074 254.382C717.074 252.882 751.218 270.382 768.043 255.882C781.502 244.282 777.61 220.382 773.981 209.882C779.919 221.216 796.645 240.482 816.042 226.882C835.44 213.282 837.98 204.549 836.826 201.882C838.145 191.549 835.836 169.182 816.042 162.382C818.516 162.382 842.269 145.382 843.258 131.882C844.248 118.382 839.795 104.382 814.063 102.382C816.042 102.564 843.753 101.882 838.31 75.3822C840.289 70.8822 826.929 44.3822 821.486 43.3822C816.042 42.3822 788.331 32.8822 776.95 56.3822C774.146 46.2155 762.699 27.3823 739.342 33.3823C715.986 39.3823 710.146 51.2155 710.146 56.3822C709.652 61.7156 709.652 74.3823 713.61 82.3823C708.827 74.7157 696.489 60.6823 685.404 65.8823C671.549 72.3823 661.652 76.3823 664.126 98.3823C663.978 96.9249 649.776 73.8823 628.993 88.3823" stroke="#EBF6F9" stroke-width="8"/>
<path d="M1576.83 67.4999C1599.09 54.4999 1646.99 38.9999 1660.45 80.9999C1677.28 133.5 1664.91 189.5 1647.09 211.5C1642.64 219.667 1628.78 235.3 1608.99 232.5C1589.2 229.7 1579.3 222 1576.83 218.5C1569.4 224.833 1551.29 236.5 1538.23 232.5C1521.9 227.5 1488.25 193.5 1489.24 156.5C1490.23 119.5 1512.5 75.5 1518.93 72.5C1525.36 69.5 1544.66 48.4999 1576.83 67.4999ZM1576.83 67.4999C1589.1 45.8999 1576 15.5 1567.92 3" stroke="#EBF6F9" stroke-width="8"/>
<path d="M1535.48 103C1526.41 113.667 1511.73 145.1 1525.59 185.5" stroke="#EBF6F9" stroke-width="15" stroke-linecap="round"/>
<path d="M1680.02 257.5C1702.29 244.5 1750.19 229 1763.65 271C1780.48 323.5 1768.11 379.5 1750.29 401.5C1745.84 409.667 1731.98 425.3 1712.19 422.5C1692.4 419.7 1682.5 412 1680.02 408.5C1672.6 414.833 1654.49 426.5 1641.43 422.5C1625.1 417.5 1591.45 383.5 1592.44 346.5C1593.43 309.5 1615.7 265.5 1622.13 262.5C1628.56 259.5 1647.86 238.5 1680.02 257.5ZM1680.02 257.5C1692.3 235.9 1679.2 205.5 1671.12 193" stroke="#EBF6F9" stroke-width="8"/>
<path d="M1638.68 293C1629.61 303.667 1614.93 335.1 1628.79 375.5" stroke="#EBF6F9" stroke-width="15" stroke-linecap="round"/>
<path d="M1332.01 260.383C1343.56 272.549 1368.04 300.683 1369.62 301.883C1371.6 303.383 1392.38 308.383 1381.99 283.383C1373.68 263.383 1365.99 248.049 1363.68 244.383" stroke="#EBF6F9" stroke-width="8"/>
<path d="M1385.46 230.883C1391.56 256.216 1406.34 310.783 1416.63 316.383C1426.92 321.983 1425.54 309.049 1423.56 301.883L1404.76 226.883" stroke="#EBF6F9" stroke-width="8"/>
<path d="M1452.76 367.382L1423.56 315.882" stroke="#EBF6F9" stroke-width="8"/>
<path d="M1463.15 358.883C1450.78 342.716 1428.9 299.183 1432.47 264.383" stroke="#EBF6F9" stroke-width="8"/>
<path d="M1438.4 376.882L1384.47 293.382" stroke="#EBF6F9" stroke-width="8"/>
<path d="M1423.56 386.883C1409.37 361.716 1379.22 308.883 1378.03 304.883" stroke="#EBF6F9" stroke-width="8"/>
<path d="M1427.52 231.882C1427.52 270.457 1451.86 317.487 1468.53 343.322C1472.03 348.744 1470.99 356.019 1465.9 359.981L1433.33 385.318C1426.33 390.764 1415.84 387.798 1411.27 380.197C1387.25 340.226 1329.49 296.284 1300.34 277.382C1287.81 274.382 1262.74 269.182 1262.74 272.382C1262.74 276.382 1239.48 289.382 1221.17 277.382C1206.52 267.782 1210.12 243.049 1213.75 231.882C1207.15 233.216 1192.47 232.282 1186.53 217.882C1179.11 199.882 1193.46 186.903 1195.93 189.382C1161.79 156.882 1202.86 131.382 1204.84 132.882C1192.96 101.282 1216.72 86.7157 1230.08 83.3823C1230.57 52.8823 1260.26 49.8823 1261.75 52.8823C1270.46 24.4823 1296.39 27.3824 1308.26 32.3825C1319.35 23.1826 1338.28 24.8824 1346.36 26.8824C1371.7 -4.31765 1399.15 17.5491 1409.7 32.3825C1469.58 13.3825 1453.25 70.8825 1455.72 74.8825C1457.7 78.0825 1462.16 88.8825 1464.14 93.8825C1477.5 97.3825 1476.51 97.3825 1483.44 110.882C1488.98 121.682 1475.85 136.382 1468.59 142.382C1474.53 144.882 1480.47 160.382 1476.51 171.382C1473.34 180.182 1459.68 183.382 1453.25 183.882C1455.89 190.382 1459.58 205.382 1453.25 213.382C1446.92 221.382 1433.46 229.049 1427.52 231.882Z" stroke="#EBF6F9" stroke-width="8"/>
<path d="M1263.23 228.882C1258.28 217.882 1253.83 198.982 1275.6 211.382C1278.08 200.383 1288.07 182.883 1308.26 200.883" stroke="#EBF6F9" stroke-width="8"/>
<path d="M1272.14 167.882C1266.86 153.716 1264.32 126.682 1296.39 131.882C1297.21 122.382 1303.91 106.582 1324.1 119.382" stroke="#EBF6F9" stroke-width="8"/>
<path d="M1330.53 163.883C1331.02 163.383 1335.97 125.883 1357.25 144.883C1361.87 135.049 1373.48 121.183 1382.98 144.383" stroke="#EBF6F9" stroke-width="8"/>
<path d="M1292.43 275.882C1297.71 273.215 1307.87 265.182 1306.28 254.382C1306.28 252.882 1340.43 270.382 1357.25 255.882C1370.71 244.282 1366.82 220.382 1363.19 209.882C1369.13 221.216 1385.85 240.482 1405.25 226.882C1424.65 213.282 1427.19 204.549 1426.03 201.882C1427.35 191.549 1425.04 169.182 1405.25 162.382C1407.72 162.382 1431.48 145.382 1432.47 131.882C1433.46 118.382 1429 104.382 1403.27 102.382C1405.25 102.564 1432.96 101.882 1427.52 75.3822C1429.5 70.8822 1416.14 44.3822 1410.69 43.3822C1405.25 42.3822 1377.54 32.8822 1366.16 56.3822C1363.35 46.2155 1351.91 27.3823 1328.55 33.3823C1305.19 39.3823 1299.35 51.2155 1299.35 56.3822C1298.86 61.7156 1298.86 74.3823 1302.82 82.3823C1298.04 74.7157 1285.7 60.6823 1274.61 65.8823C1260.76 72.3823 1250.86 76.3823 1253.33 98.3823C1253.19 96.9249 1238.98 73.8823 1218.2 88.3823" stroke="#EBF6F9" stroke-width="8"/>
</svg>
