<svg width="21" height="21" viewBox="0 0 21 21" fill="none" xmlns="http://www.w3.org/2000/svg">
<path d="M20.4641 2.5C20.4641 3.60538 19.5698 4.5 18.4684 4.5C17.367 4.5 16.4727 3.60538 16.4727 2.5C16.4727 1.39462 17.367 0.5 18.4684 0.5C19.5698 0.5 20.4641 1.39462 20.4641 2.5Z" stroke="#F0FCF5"/>
<path d="M12.4778 2.5C12.4778 3.60538 11.5835 4.5 10.4821 4.5C9.38065 4.5 8.48633 3.60538 8.48633 2.5C8.48633 1.39462 9.38065 0.5 10.4821 0.5C11.5835 0.5 12.4778 1.39462 12.4778 2.5Z" stroke="#F0FCF5"/>
<path d="M4.49145 2.5C4.49145 3.60538 3.59713 4.5 2.49573 4.5C1.39432 4.5 0.5 3.60538 0.5 2.5C0.5 1.39462 1.39432 0.5 2.49573 0.5C3.59713 0.5 4.49145 1.39462 4.49145 2.5Z" stroke="#F0FCF5"/>
<path d="M20.4641 18.5C20.4641 19.6054 19.5698 20.5 18.4684 20.5C17.367 20.5 16.4727 19.6054 16.4727 18.5C16.4727 17.3946 17.367 16.5 18.4684 16.5C19.5698 16.5 20.4641 17.3946 20.4641 18.5Z" stroke="#F0FCF5"/>
<path d="M12.4778 18.5C12.4778 19.6054 11.5835 20.5 10.4821 20.5C9.38065 20.5 8.48633 19.6054 8.48633 18.5C8.48633 17.3946 9.38065 16.5 10.4821 16.5C11.5835 16.5 12.4778 17.3946 12.4778 18.5Z" stroke="#F0FCF5"/>
<path d="M4.49145 18.5C4.49145 19.6054 3.59713 20.5 2.49573 20.5C1.39432 20.5 0.5 19.6054 0.5 18.5C0.5 17.3946 1.39432 16.5 2.49573 16.5C3.59713 16.5 4.49145 17.3946 4.49145 18.5Z" stroke="#F0FCF5"/>
<path d="M20.4641 10.5C20.4641 11.6054 19.5698 12.5 18.4684 12.5C17.367 12.5 16.4727 11.6054 16.4727 10.5C16.4727 9.39462 17.367 8.5 18.4684 8.5C19.5698 8.5 20.4641 9.39462 20.4641 10.5Z" stroke="#F0FCF5"/>
<path d="M12.4778 10.5C12.4778 11.6054 11.5835 12.5 10.4821 12.5C9.38065 12.5 8.48633 11.6054 8.48633 10.5C8.48633 9.39462 9.38065 8.5 10.4821 8.5C11.5835 8.5 12.4778 9.39462 12.4778 10.5Z" stroke="#F0FCF5"/>
<path d="M4.49145 10.5C4.49145 11.6054 3.59713 12.5 2.49573 12.5C1.39432 12.5 0.5 11.6054 0.5 10.5C0.5 9.39462 1.39432 8.5 2.49573 8.5C3.59713 8.5 4.49145 9.39462 4.49145 10.5Z" stroke="#F0FCF5"/>
</svg>
